<svg xmlns="http://www.w3.org/2000/svg" viewBox="0 0 360 260" role="img" aria-label="">
  <defs><linearGradient id="m6" x1="44" y1="42" x2="318" y2="236"><stop stop-color="#312E81"/><stop offset="1" stop-color="#070A22"/></linearGradient></defs>
  <rect width="360" height="260" rx="28" fill="#E4E9FF"/>
  <path d="M24 224 100 142l43 28 92-126 103 180z" fill="url(#m6)"/>
  <path d="m235 44 38 126 39-70-77-56z" fill="#FFFFFF" opacity=".94"/>
  <path d="M235 44v-26" stroke="#1A1F36" stroke-width="5" stroke-linecap="round"/>
  <path d="M239 20h42l-10 14h-32z" fill="#FFD166"/>
  <path d="M52 228c36-21 73-35 116-20 62 22 106-4 142-86" fill="none" stroke="#312E81" stroke-width="5" stroke-linecap="round" stroke-dasharray="2 13"/>
  <circle cx="52" cy="228" r="7" fill="#A7F3D0"/>
  <circle cx="168" cy="208" r="8" fill="#A7F3D0"/>
  <circle cx="258" cy="181" r="8" fill="#A7F3D0"/>
  <circle cx="310" cy="123" r="11" fill="#22C55E"/>
</svg>
